<svg width="337" height="115" viewBox="0 0 337 115" fill="none" xmlns="http://www.w3.org/2000/svg">
<path d="M5.6 89C2.44267 89 0.864 87.4213 0.864 84.264V8.35999C0.864 5.20266 2.44267 3.62399 5.6 3.62399H36.448C47.4133 3.62399 55.456 6.20533 60.576 11.368C65.696 16.488 68.256 24.5307 68.256 35.496V57.128C68.256 68.0933 65.696 76.1573 60.576 81.32C55.4987 86.44 47.456 89 36.448 89H5.6ZM10.272 79.592H36.448C41.9947 79.592 46.4107 78.888 49.696 77.48C52.9813 76.072 55.328 73.7253 56.736 70.44C58.144 67.1547 58.848 62.7173 58.848 57.128V35.496C58.848 29.9493 58.144 25.5333 56.736 22.248C55.328 18.9627 52.9813 16.616 49.696 15.208C46.4107 13.7573 41.9947 13.032 36.448 13.032H10.272V79.592ZM94.372 14.696C90.7027 14.696 88.868 12.8187 88.868 9.064V5.60799C88.868 1.93866 90.7027 0.103996 94.372 0.103996H97.828C101.369 0.103996 103.14 1.93866 103.14 5.60799V9.064C103.14 12.8187 101.369 14.696 97.828 14.696H94.372ZM96.1 89C92.9427 89 91.364 87.4213 91.364 84.264V30.248C91.364 27.1333 92.9427 25.576 96.1 25.576C99.2147 25.576 100.772 27.1333 100.772 30.248V84.264C100.772 87.4213 99.2147 89 96.1 89ZM141.657 114.6C136.537 114.6 132.548 113.555 129.689 111.464C126.83 109.373 125.038 106.173 124.313 101.864C124.057 100.285 124.334 99.048 125.145 98.152C125.998 97.256 127.236 96.808 128.857 96.808C130.308 96.808 131.374 97.192 132.057 97.96C132.74 98.728 133.294 99.88 133.721 101.416C134.148 102.867 134.958 103.848 136.153 104.36C137.39 104.915 139.225 105.192 141.657 105.192H165.465C168.836 105.192 171.054 104.616 172.121 103.464C173.23 102.355 173.785 100.136 173.785 96.808V80.808C171.609 83.4533 168.793 85.48 165.337 86.888C161.881 88.296 157.828 89 153.177 89H148.313C139.993 89 133.828 87.016 129.817 83.048C125.849 79.08 123.865 72.9573 123.865 64.68V49.96C123.865 41.5547 125.828 35.3893 129.753 31.464C133.721 27.5387 139.908 25.576 148.313 25.576H158.809C162.222 25.576 165.166 26.0667 167.641 27.048C170.116 27.9867 172.164 29.4587 173.785 31.464V30.248C173.785 27.1333 175.364 25.576 178.521 25.576C181.636 25.576 183.193 27.1333 183.193 30.248V96.808C183.193 102.867 181.742 107.347 178.841 110.248C175.982 113.149 171.524 114.6 165.465 114.6H141.657ZM148.313 79.592H153.177C159.15 79.592 164.078 78.7813 167.961 77.16C171.844 75.496 173.785 72.936 173.785 69.48V45.288C173.785 41.3627 172.505 38.6747 169.945 37.224C167.385 35.7307 163.673 34.984 158.809 34.984H148.313C142.596 34.984 138.649 36.0293 136.473 38.12C134.34 40.2107 133.273 44.1573 133.273 49.96V64.68C133.273 70.312 134.34 74.216 136.473 76.392C138.606 78.5253 142.553 79.592 148.313 79.592ZM210.747 14.696C207.078 14.696 205.243 12.8187 205.243 9.064V5.60799C205.243 1.93866 207.078 0.103996 210.747 0.103996H214.203C217.744 0.103996 219.515 1.93866 219.515 5.60799V9.064C219.515 12.8187 217.744 14.696 214.203 14.696H210.747ZM212.475 89C209.318 89 207.739 87.4213 207.739 84.264V30.248C207.739 27.1333 209.318 25.576 212.475 25.576C215.59 25.576 217.147 27.1333 217.147 30.248V84.264C217.147 87.4213 215.59 89 212.475 89ZM247.6 89C244.443 89 242.864 87.4213 242.864 84.264V8.35999C242.864 5.20266 244.443 3.62399 247.6 3.62399H281.008C287.621 3.62399 292.677 5.35199 296.176 8.808C299.675 12.264 301.424 17.2347 301.424 23.72V27.176C301.424 33.2347 299.504 37.7787 295.664 40.808C302.661 44.392 306.16 51.24 306.16 61.352V65.576C306.16 73.256 304.155 79.08 300.144 83.048C296.133 87.016 290.309 89 282.672 89H247.6ZM252.272 79.592H282.672C287.664 79.592 291.248 78.504 293.424 76.328C295.643 74.1093 296.752 70.5253 296.752 65.576V61.352C296.752 56.4027 295.685 52.8613 293.552 50.728C291.419 48.552 287.792 47.464 282.672 47.464H252.272V79.592ZM252.272 38.056H282.864C286.235 38.056 288.603 37.096 289.968 35.176C291.333 33.2133 292.016 30.5467 292.016 27.176V23.72C292.016 19.8373 291.184 17.0853 289.52 15.464C287.856 13.8427 285.019 13.032 281.008 13.032H252.272V38.056Z" fill="white"/>
<path d="M328.851 89C325.736 89 324.179 87.4427 324.179 84.328V81.384C324.179 78.3547 325.736 76.84 328.851 76.84H331.667C334.654 76.84 336.147 78.3547 336.147 81.384V84.328C336.147 87.4427 334.654 89 331.667 89H328.851Z" fill="#3882F6"/>
</svg>
